<?xml version="1.0" encoding="iso-8859-1"?>
<!-- Generator: Adobe Illustrator 18.0.0, SVG Export Plug-In . SVG Version: 6.00 Build 0)  -->
<!DOCTYPE svg PUBLIC "-//W3C//DTD SVG 1.1//EN" "http://www.w3.org/Graphics/SVG/1.1/DTD/svg11.dtd">
<svg version="1.1" id="Capa_1" xmlns="http://www.w3.org/2000/svg" xmlns:xlink="http://www.w3.org/1999/xlink" x="0px" y="0px"
	 viewBox="0 0 297 297" style="enable-background:new 0 0 297 297;" xml:space="preserve">
<g>
	<g>
		<path style="fill:#EA8189;" d="M264,0h-33v63.333C231,83.032,215.032,99,195.333,99h-93.667C81.968,99,66,83.032,66,63.333V0H33
			L18.5,130.5h260L264,0z"/>
	</g>
	<g>
		<path style="fill:#D95459;" d="M278.5,130.5h-260L8.285,222.432C3.865,262.211,35.003,297,75.027,297h146.946
			c40.024,0,71.162-34.789,66.742-74.568L278.5,130.5z"/>
	</g>
	<g style="opacity:0.6;">
		<g>
			<polygon style="fill:#EA8189;" points="264,0 238.867,0 253.367,130.5 278.5,130.5 			"/>
		</g>
	</g>
	<g style="opacity:0.6;">
		<path style="fill:#D95459;" d="M288.715,222.432L278.5,130.5h-23.467l8.548,76.932C268.001,247.211,236.863,282,196.84,282H49.894
			c-7.339,0-14.376-1.18-20.953-3.336C40.912,289.981,57.068,297,75.027,297h146.946C261.997,297,293.135,262.211,288.715,222.432z"
			/>
	</g>
	<g>
		<g>
			<path style="fill:#E3E5E4;" d="M199.98,196.02c0-15.6-11.524-25.74-25.74-25.74s-25.74,11.524-25.74,25.74
				c0-14.216-11.524-25.74-25.74-25.74s-25.74,9.36-25.74,25.74c0,26.52,51.48,51.48,51.48,51.48S199.98,223.32,199.98,196.02z"/>
		</g>
	</g>
</g>
<g>
</g>
<g>
</g>
<g>
</g>
<g>
</g>
<g>
</g>
<g>
</g>
<g>
</g>
<g>
</g>
<g>
</g>
<g>
</g>
<g>
</g>
<g>
</g>
<g>
</g>
<g>
</g>
<g>
</g>
</svg>
