<?xml version="1.0" encoding="iso-8859-1"?>
<!-- Generator: Adobe Illustrator 19.0.0, SVG Export Plug-In . SVG Version: 6.00 Build 0)  -->
<svg version="1.1" id="Layer_1" xmlns="http://www.w3.org/2000/svg" xmlns:xlink="http://www.w3.org/1999/xlink" x="0px" y="0px"
	 viewBox="0 0 464 464" style="enable-background:new 0 0 464 464;" xml:space="preserve">
<g>
	<g>
		<g>
			<path style="fill:#FFAF3C;" d="M296,120c-4.418,0-8-3.578-8-8V72c0-30.875-25.121-56-56-56s-56,25.125-56,56v40
				c0,4.422-3.582,8-8,8s-8-3.578-8-8V72c0-39.703,32.301-72,72-72s72,32.297,72,72v40C304,116.422,300.418,120,296,120z"/>
		</g>
	</g>
	<g>
		<g>
			<path style="fill:#FFAF3C;" d="M120,200c-30.879,0-56-25.125-56-56v-24c0-13.234-10.766-24-24-24c-4.418,0-8-3.578-8-8
				s3.582-8,8-8c22.055,0,40,17.945,40,40v24c0,22.055,17.945,40,40,40c4.418,0,8,3.578,8,8S124.418,200,120,200z"/>
		</g>
	</g>
	<g>
		<g>
			<path style="fill:#FFAF3C;" d="M344,200c-4.418,0-8-3.578-8-8s3.582-8,8-8c22.055,0,40-17.945,40-40v-24
				c0-22.055,17.945-40,40-40c4.418,0,8,3.578,8,8s-3.582,8-8,8c-13.234,0-24,10.766-24,24v24C400,174.875,374.879,200,344,200z"/>
		</g>
	</g>
	<g>
		<path style="fill:#FFD250;" d="M304,144v-32H160v32c0,22.091-17.909,40-40,40l0,0v264c0,8.837,7.163,16,16,16h192
			c8.837,0,16-7.163,16-16V184l0,0C321.909,184,304,166.091,304,144z"/>
	</g>
	<g>
		<rect x="160" y="112" style="fill:#FFC846;" width="144" height="16"/>
	</g>
	<g>
		<path style="fill:#FFB940;" d="M264,216h-64c-8.837,0-16-7.163-16-16v-48h96v48C280,208.837,272.837,216,264,216z"/>
	</g>
	<g>
		<path style="fill:#FFC846;" d="M328,464H136c-8.837,0-16-7.163-16-16l0,0h224l0,0C344,456.837,336.837,464,328,464z"/>
	</g>
	<g>
		<rect x="184" y="152" style="fill:#FFAF3C;" width="96" height="16"/>
	</g>
</g>
<g>
</g>
<g>
</g>
<g>
</g>
<g>
</g>
<g>
</g>
<g>
</g>
<g>
</g>
<g>
</g>
<g>
</g>
<g>
</g>
<g>
</g>
<g>
</g>
<g>
</g>
<g>
</g>
<g>
</g>
</svg>
