<?xml version="1.0" encoding="iso-8859-1"?>
<!-- Generator: Adobe Illustrator 19.0.0, SVG Export Plug-In . SVG Version: 6.00 Build 0)  -->
<svg version="1.1" id="Layer_1" xmlns="http://www.w3.org/2000/svg" xmlns:xlink="http://www.w3.org/1999/xlink" x="0px" y="0px"
	 viewBox="0 0 297 297" style="enable-background:new 0 0 297 297;" xml:space="preserve">
<g>
	<path style="fill:#B70B39;" d="M148.5,0c-0.115,0-0.228,0.008-0.343,0.009c-31.979,0.186-57.94,26.251-57.94,58.272v25.028
		c0,4.544,3.684,8.228,8.228,8.228s8.228-3.684,8.228-8.228V58.281c0-22.947,18.578-41.631,41.484-41.816
		c0.115-0.001,0.228-0.009,0.343-0.009c23.063,0,41.826,18.763,41.826,41.825v25.028c0,4.544,3.684,8.228,8.228,8.228
		s8.228-3.684,8.228-8.228V58.281C206.782,26.144,180.637,0,148.5,0z"/>
	<g>
		<path style="fill:#EC0732;" d="M90.218,58.281v25.028c0,4.544,3.684,8.228,8.228,8.228s8.228-3.684,8.228-8.228V58.281
			c0-22.947,18.578-41.631,41.484-41.816V0.009C116.179,0.195,90.218,26.259,90.218,58.281z"/>
		<path style="fill:#B70B39;" d="M148.5,0c-0.115,0-0.228,0.008-0.342,0.009v16.456c0.115-0.001,0.228-0.009,0.342-0.009
			c23.063,0,41.826,18.763,41.826,41.825v25.028c0,4.544,3.684,8.228,8.228,8.228c4.544,0,8.228-3.684,8.228-8.228V58.281
			C206.782,26.144,180.637,0,148.5,0z"/>
	</g>
	<g>
		<path style="fill:#EC0732;" d="M57.707,163.556c-19.975,0-36.227-16.251-36.227-36.226V57.335c0-4.544,3.684-8.228,8.228-8.228
			s8.228,3.684,8.228,8.228v69.995c0,10.901,8.869,19.77,19.771,19.77c4.544,0,8.228,3.684,8.228,8.228
			S62.25,163.556,57.707,163.556z"/>
	</g>
	<g>
		<path style="fill:#B70B39;" d="M239.293,163.556c-4.544,0-8.228-3.684-8.228-8.228c0-4.544,3.684-8.228,8.228-8.228
			c10.902,0,19.771-8.869,19.771-19.77V57.335c0-4.544,3.684-8.228,8.228-8.228s8.228,3.684,8.228,8.228v69.995
			C275.52,147.305,259.269,163.556,239.293,163.556z"/>
	</g>
	<path style="fill:#870E1F;" d="M236.094,146.909c-16.163,0-29.312-13.15-29.312-29.312V83.722
		c0-13.599-11.062-24.661-24.661-24.661h-33.964h-33.279c-13.599,0-24.661,11.062-24.661,24.661v33.874
		c0,16.163-13.15,29.312-29.312,29.312c-4.544,0-8.228,3.684-8.228,8.228v133.635c0,4.544,3.684,8.228,8.228,8.228h87.252h87.937
		c4.544,0,8.228-3.684,8.228-8.228V155.137C244.322,150.593,240.638,146.909,236.094,146.909z"/>
	<path style="fill:#A91523;" d="M114.879,59.062c-13.599,0-24.661,11.062-24.661,24.661v33.874c0,16.163-13.15,29.312-29.312,29.312
		c-4.544,0-8.228,3.684-8.228,8.228v133.635c0,4.544,3.684,8.228,8.228,8.228h87.252V59.062H114.879z"/>
	<path style="fill:#870E1F;" d="M236.094,146.909c-16.163,0-29.312-13.15-29.312-29.312V83.722
		c0-13.599-11.062-24.661-24.661-24.661h-33.964V297h87.937c4.544,0,8.228-3.684,8.228-8.228V155.137
		C244.322,150.593,240.638,146.909,236.094,146.909z"/>
	<path style="fill:#EC0732;" d="M98.446,171.936c-4.544,0-8.228,3.684-8.228,8.228v25.027c0,32.022,25.961,58.088,57.94,58.273
		v-91.528L98.446,171.936L98.446,171.936z"/>
	<path style="fill:#B70B39;" d="M198.554,171.936h-50.397v91.528c0.115,0.001,0.228,0.009,0.342,0.009
		c32.137,0,58.282-26.145,58.282-58.282v-25.027C206.782,175.62,203.098,171.936,198.554,171.936z"/>
</g>
<g>
</g>
<g>
</g>
<g>
</g>
<g>
</g>
<g>
</g>
<g>
</g>
<g>
</g>
<g>
</g>
<g>
</g>
<g>
</g>
<g>
</g>
<g>
</g>
<g>
</g>
<g>
</g>
<g>
</g>
</svg>
