<?xml version="1.0" encoding="iso-8859-1"?>
<!-- Generator: Adobe Illustrator 19.0.0, SVG Export Plug-In . SVG Version: 6.00 Build 0)  -->
<svg version="1.1" id="Layer_1" xmlns="http://www.w3.org/2000/svg" xmlns:xlink="http://www.w3.org/1999/xlink" x="0px" y="0px"
	 viewBox="0 0 495 495" style="enable-background:new 0 0 495 495;" xml:space="preserve">
<g>
	<path style="fill:#EBE5DD;" d="M268.179,137.165c-6.166,2.56-12.919,3.98-20,3.98c-7.081,0-13.834-1.42-20-3.98v35.981h40V137.165z
		"/>
	<path style="fill:#FF7956;" d="M246.55,290.827c34.55,0,34.55-29.08,69.11-29.08s34.56,29.08,69.11,29.08
		c34.56,0,34.56-29.08,69.12-29.08c-34.56,0-34.56,29.08-69.12,29.08c-34.55,0-34.55-29.08-69.11-29.08
		S281.1,290.827,246.55,290.827c-34.56,0-34.56-29.08-69.11-29.08c-34.56,0-34.56,29.08-69.11,29.08s-34.55-29.08-69.11-29.08
		v121.898h207.33V290.827z"/>
	<path style="fill:#FF5023;" d="M315.66,261.747c-34.56,0-34.56,29.08-69.11,29.08v92.818h207.34V261.747
		c-34.56,0-34.56,29.08-69.12,29.08C350.22,290.827,350.22,261.747,315.66,261.747z"/>
	<path style="fill:#CD2A00;" d="M177.44,261.747c34.55,0,34.55,29.08,69.11,29.08c34.55,0,34.55-29.08,69.11-29.08
		s34.56,29.08,69.11,29.08c34.56,0,34.56-29.08,69.12-29.08v-28.6c0-33.09-26.91-60-60-60H99.22c-33.08,0-60,26.91-60,60v28.6
		c34.56,0,34.56,29.08,69.11,29.08S142.88,261.747,177.44,261.747z"/>
	<polygon style="fill:#EBE5DD;" points="44.161,423.645 64.269,493.645 247.5,493.645 247.5,423.645 	"/>
	<polygon style="fill:#D9CCBC;" points="247.5,493.645 431.23,493.645 450.925,423.645 247.5,423.645 	"/>
	<rect y="383.645" style="fill:#C0AB91;" width="495" height="40"/>
	<path style="fill:#FFCD00;" d="M268.179,137.165c18.966-7.873,32.342-26.582,32.342-48.362c0-11.353-3.578-22.157-10.366-31.271
		L248.179,1.355l-41.994,56.202c-6.77,9.089-10.348,19.894-10.348,31.246c0,21.78,13.376,40.489,32.342,48.362
		c6.166,2.56,12.919,3.98,20,3.98C255.26,141.145,262.013,139.725,268.179,137.165z"/>
</g>
<g>
</g>
<g>
</g>
<g>
</g>
<g>
</g>
<g>
</g>
<g>
</g>
<g>
</g>
<g>
</g>
<g>
</g>
<g>
</g>
<g>
</g>
<g>
</g>
<g>
</g>
<g>
</g>
<g>
</g>
</svg>
