<?xml version="1.0" encoding="iso-8859-1"?>
<!-- Generator: Adobe Illustrator 19.0.0, SVG Export Plug-In . SVG Version: 6.00 Build 0)  -->
<svg version="1.1" id="Capa_1" xmlns="http://www.w3.org/2000/svg" xmlns:xlink="http://www.w3.org/1999/xlink" x="0px" y="0px"
	 viewBox="0 0 320 320" style="enable-background:new 0 0 320 320;" xml:space="preserve">
<g id="XMLID_13_">
	<path id="XMLID_334_" style="fill:#FF9811;" d="M145,280c0-8.284,6.716-15,15-15v-80.515c-6.183-6.312-10-14.951-10-24.485
		c0-9.533,3.817-18.172,10-24.484V0C71.634,0,0,71.634,0,160s71.634,160,160,160v-25C151.716,295,145,288.284,145,280z M65,210
		c-13.807,0-25-11.193-25-25c0-13.807,11.193-25,25-25c13.807,0,25,11.193,25,25C90,198.807,78.807,210,65,210z M95,80
		c-8.284,0-15-6.716-15-15s6.716-15,15-15c8.284,0,15,6.716,15,15S103.284,80,95,80z"/>
	<path id="XMLID_341_" style="fill:#BF720D;" d="M210,40c0-10.615,2.375-20.672,6.603-29.687C199.005,3.655,179.931,0,160,0v135.516
		c6.353-6.486,15.204-10.516,25-10.516c19.33,0,35,15.671,35,35c0,19.33-15.67,35-35,35c-9.796,0-18.647-4.029-25-10.515V265
		c8.284,0,15,6.716,15,15s-6.716,15-15,15v25c88.365,0,160-71.634,160-160c0-19.931-3.655-39.005-10.314-56.604
		C300.672,107.625,290.615,110,280,110C241.34,110,210,78.66,210,40z M290,194c0,8.284-6.716,15-15,15c-8.284,0-15-6.716-15-15
		s6.716-15,15-15C283.284,179,290,185.716,290,194z"/>
	<circle id="XMLID_351_" style="fill:#50412E;" cx="95" cy="65" r="15"/>
	<circle id="XMLID_352_" style="fill:#50412E;" cx="160" cy="280" r="15"/>
	<circle id="XMLID_439_" style="fill:#50412E;" cx="65" cy="185" r="25"/>
	<path id="XMLID_440_" style="fill:#50412E;" d="M160,184.485c6.353,6.486,15.204,10.515,25,10.515c19.33,0,35-15.67,35-35
		c0-19.329-15.67-35-35-35c-9.796,0-18.647,4.029-25,10.516c-6.183,6.312-10,14.951-10,24.484
		C150,169.534,153.817,178.173,160,184.485z"/>
	<circle id="XMLID_441_" style="fill:#50412E;" cx="275" cy="194" r="15"/>
</g>
<g>
</g>
<g>
</g>
<g>
</g>
<g>
</g>
<g>
</g>
<g>
</g>
<g>
</g>
<g>
</g>
<g>
</g>
<g>
</g>
<g>
</g>
<g>
</g>
<g>
</g>
<g>
</g>
<g>
</g>
</svg>
