<?xml version="1.0" encoding="utf-8"?>
<!-- Generator: Adobe Illustrator 19.0.0, SVG Export Plug-In . SVG Version: 6.00 Build 0)  -->
<svg version="1.1" xmlns="http://www.w3.org/2000/svg" xmlns:xlink="http://www.w3.org/1999/xlink" x="0px" y="0px"
	 viewBox="0 0 545.8 130.3" style="enable-background:new 0 0 545.8 130.3;" xml:space="preserve">
<g id="Background_xA0_Image_1_">
</g>
<g id="Vector_Smart_Object_xA0_Image_1_">
	<g>
		<path d="M0,59.4c1.7,0,3.4-0.1,5,0c1,0.1,1.4-0.3,1.8-1.3C12.9,41,19.1,23.9,25.2,6.8c0.6-1.6,1.2-3.2,1.7-4.9
			c0.2-0.7,0.5-0.9,1.3-0.9c2.8,0,5.6,0.1,8.4,0c0.9,0,1.3,0.3,1.6,1.1c4.3,12,8.6,24.1,12.9,36.1c2.4,6.7,4.8,13.4,7.2,20.1
			c0.3,0.8,0.6,1.1,1.4,1c1.4-0.1,2.9,0,4.3,0c0.7,0,1,0.2,1,0.9c0,1.8,0,3.6,0,5.4c0,0.7-0.2,0.9-0.9,0.9c-7,0-14,0-21,0
			c-0.7,0-0.9-0.2-0.9-0.9c0-1.8,0-3.6,0-5.4c0-0.7,0.2-1,0.9-1c1.7,0.1,3.4,0,5,0c0.7,0,0.9-0.2,0.6-0.9c-1.5-4.3-3.1-8.7-4.5-13
			c-0.2-0.6-0.5-0.7-1-0.7c-7.2,0-14.4,0-21.6,0c-0.7,0-0.9,0.3-1.1,0.9c-1.5,4.3-3,8.6-4.5,12.9c-0.2,0.7-0.2,0.9,0.6,0.9
			c1.6,0,3.3,0.1,4.9,0c1-0.1,1.3,0.3,1.2,1.3c-0.1,1.6-0.1,3.3,0,4.9c0,0.9-0.3,1-1.1,1c-7.2,0-14.5,0-21.7,0C0,64.2,0,61.8,0,59.4
			z M32.5,9.9c-0.2,0.1-0.2,0.3-0.2,0.6c-0.4,2.9-1.5,5.5-2.4,8.3c-2.1,5.9-4.2,11.7-6.2,17.6c-0.1,0.4-0.8,1.1,0.4,1.1
			c5.6,0,11.3,0,16.9,0c0.6,0,0.8-0.2,0.5-0.8c-0.4-1.1-0.8-2.3-1.2-3.4C37.7,25.4,34.5,17.8,32.5,9.9z"/>
		<path d="M545.8,26.5c-1.6,0-3.1,0.1-4.7,0.1c-0.9,0-1.3,0.3-1.6,1.2c-6,15.5-12.1,31-18.2,46.5c-2.1,5.4-5.7,9.5-11.5,11.2
			c-5,1.4-9.7,0.7-14.2-1.8c-0.6-0.3-0.8-0.6-0.4-1.3c0.8-1.7,1.6-3.4,2.3-5.1c0.3-0.7,0.5-0.8,1.2-0.4c2,1.3,4.2,1.9,6.6,1.7
			c3.6-0.4,5.9-2.5,7.5-5.6c0.8-1.6,1.4-3.3,2.2-4.9c0.2-0.5,0.1-0.8-0.1-1.3c-5.3-13.1-10.5-26.1-15.8-39.2
			c-0.3-0.7-0.6-0.9-1.3-0.9c-1.4,0-2.7,0-4.1,0c-0.7,0-0.9-0.2-0.9-0.9c0-1.7,0-3.4,0-5.2c0-0.6,0.2-0.9,0.9-0.9
			c6.6,0,13.2,0,19.8,0c0.6,0,0.8,0.3,0.8,0.8c0,1.8,0,3.5,0,5.3c0,0.7-0.3,0.9-0.9,0.9c-1.3,0-2.6,0-3.8,0c-1.5,0-1.5,0-1,1.3
			c3.2,8.5,6.4,17,9.6,25.6c0.6,1.6,0.9,3.2,1.2,4.8c0.5-0.1,0.4-0.4,0.4-0.7c1.9-6.4,4.6-12.6,6.8-18.9c1.3-3.7,2.7-7.4,4.1-11.1
			c0.3-0.9,0.2-1.1-0.8-1.1c-1.3,0.1-2.6,0-4,0c-0.7,0-1-0.2-1-1c0-1.6,0.1-3.3,0-4.9c0-0.9,0.3-1.1,1.2-1.1c6.1,0,12.2,0,18.2,0
			c0.5,0,1,0,1.4-0.1C545.8,21.9,545.8,24.2,545.8,26.5z"/>
		<path d="M260.9,33.8c0-8.1,0-16.2,0-24.4c0-0.9-0.2-1.2-1.2-1.2c-2,0.1-4,0-6,0c-0.7,0-1.1-0.1-1-1c0.1-1.8,0-3.6,0-5.4
			c0-0.6,0.2-0.8,0.8-0.8c8,0,16.1,0,24.1,0c0.7,0,0.8,0.2,0.8,0.8c0,1.8,0,3.6,0,5.4c0,0.7-0.2,1-0.9,1c-2.1,0-4.2,0-6.4,0
			c-0.7,0-1,0.2-1,0.9c0,6.6,0,13.3,0,19.9c0,0.7,0.3,1,1,1c10.7,0,21.4,0,32,0c0.7,0,0.9-0.2,0.9-1c0-6.6,0-13.3,0-19.9
			c0-0.8-0.3-0.9-1-0.9c-2.1,0-4.2,0-6.4,0c-0.7,0-0.9-0.2-0.9-0.9c0-1.8,0-3.6,0-5.4c0-0.6,0.1-0.9,0.8-0.9c8,0,16,0,24,0
			c0.7,0,0.9,0.2,0.9,0.9c0,1.8-0.1,3.6,0,5.4c0,0.8-0.3,0.9-1,0.9c-2,0-4.1,0-6.1,0c-0.8,0-1.1,0.2-1.1,1c0,16.4,0,32.7,0,49.1
			c0,0.9,0.3,1.1,1.1,1c2,0,4.1,0,6.1,0c0.7,0,1,0.2,1,0.9c-0.1,1.8,0,3.6,0,5.4c0,0.7-0.1,0.9-0.9,0.9c-8,0-16,0-24,0
			c-0.7,0-0.9-0.3-0.9-0.9c0-1.8,0-3.6,0-5.4c0-0.8,0.3-0.9,1-0.9c2.1,0,4.2,0,6.2,0c0.8,0,1-0.3,1-1c0-6.6,0-13.1,0-19.7
			c0-0.9-0.3-1.1-1.1-1.1c-10.6,0-21.2,0-31.8,0c-0.9,0-1.1,0.3-1.1,1.1c0,6.5,0,13,0,19.6c0,1,0.3,1.1,1.2,1.1c2-0.1,4.1,0,6.1,0
			c0.7,0,1,0.2,1,0.9c-0.1,1.8,0,3.6,0,5.4c0,0.7-0.2,0.9-0.9,0.9c-8,0-16,0-24,0c-0.6,0-0.9-0.1-0.9-0.8c0-1.9,0-3.8,0-5.6
			c0-0.6,0.2-0.8,0.8-0.8c2,0,4.1,0,6.1,0c1,0,1.3-0.3,1.3-1.3C260.9,50,260.9,41.9,260.9,33.8z"/>
		<path d="M179.3,31.4c-1.6-0.7-2.9-1.5-4-2.5c-4.2-3.7-5.7-8.5-5-14c0.9-7.3,5.6-12.2,13.4-14.1c4.9-1.2,9.8-1.1,14.7-0.1
			c0.8,0.2,0.8,0.5,0.6,1.1c-0.6,1.8-1.2,3.6-1.7,5.4c-0.2,0.9-0.6,1-1.4,0.9c-3-0.6-6-0.6-9,0.4c-8.5,2.7-8.6,10.8-5.7,15.3
			c1.9,3,5,4.2,8.4,4.4c5.1,0.2,10.2,0.1,15.2,0.1c0.8,0,0.8-0.4,0.8-1c0-2.4,0-4.7,0-7.1c0-0.8,0.2-1.1,1.1-1.1
			c2.2,0.1,4.5,0.1,6.7,0c0.9,0,1.3,0.2,1.2,1.2c-0.1,2.2,0,4.5,0,6.7c0,1,0.3,1.3,1.3,1.3c2.1-0.1,4.2,0,6.4,0c0.7,0,1,0.1,1,0.9
			c0,2,0,3.9,0,5.9c0,0.7-0.3,0.9-0.9,0.9c-2.2,0-4.5,0-6.7,0c-0.8,0-1,0.3-1,1c0,3.4,0.1,6.7-0.1,10.1
			c-0.5,11.7-8.5,19.8-20.2,20.6c-5.8,0.4-11.4-0.3-16.6-2.9c-10.6-5.4-13.6-18.7-6.3-27.8C173.4,34.3,176.1,32.5,179.3,31.4z
			 M197.3,35.9c-2.2,0-4.5,0-6.7,0c-2.3,0-4.6,0.4-6.8,1.2c-4.3,1.7-6.7,4.8-6.9,9.5c-0.3,4.9,1.7,8.5,5.9,10.9
			c3.2,1.8,6.7,2.1,10.2,1.9c6.9-0.5,11-4.2,12.3-11c0.7-3.9,0.3-7.9,0.4-11.8c0-0.8-0.6-0.6-1-0.6
			C202.2,35.9,199.8,35.9,197.3,35.9z"/>
		<path d="M399.9,29.5c2.1-3.9,5-6.9,9-8.9c5-2.5,10.2-2.8,15.5-1.3c5.1,1.5,7.6,5.4,8.7,10.3c0.4,1.9,0.6,3.9,0.6,5.8
			c0,7.6,0,15.1,0,22.7c0,1.1,0.3,1.5,1.4,1.4c1.7-0.1,3.4,0,5,0c0.8,0,1.1,0.2,1,1c-0.1,1.7,0,3.4,0,5.2c0,0.6-0.2,0.8-0.8,0.8
			c-4.9,0-9.8,0-14.8,0c-1,0-0.8-0.6-0.8-1.2c0-6.4,0-12.7,0-19.1c0-3.9,0.2-7.8-0.2-11.6c-0.4-4.4-2.6-7.1-6.3-7.7
			c-4.7-0.8-8.9,0.5-12.3,3.8c-3.8,3.6-5.5,8.2-5.6,13.3c-0.1,4.8,0,9.6,0,14.4c0,0.8,0.2,1.1,1.1,1.1c1.8-0.1,3.7,0,5.5,0
			c0.7,0,0.9,0.2,0.9,0.9c0,1.8,0,3.5,0,5.3c0,0.6-0.2,0.8-0.8,0.8c-7.4,0-14.8,0-22.2,0c-0.6,0-0.8-0.2-0.8-0.7c0-1.8,0-3.7,0-5.5
			c0-0.6,0.3-0.7,0.8-0.7c1.8,0,3.7,0,5.5,0c0.7,0,1-0.2,1-0.9c0-10,0-20,0-30c0-1.4-0.6-2-2.1-2.1c-1.6-0.1-3.2,0-4.8,0
			c-0.7,0-0.9-0.2-0.9-0.9c0-1.8,0-3.5,0-5.3c0-0.5,0.1-0.8,0.7-0.8c3.8,0.1,7.6-0.2,11.4,0.2c3,0.3,4.4,2,4.4,4.9
			C400,26.3,400.1,27.9,399.9,29.5z"/>
		<path d="M352.6,18.6c11.3,0,20.6,6.2,24.1,15.9c5.2,14.6-3.2,30.3-19.4,32.9c-8.4,1.4-16-0.6-22.3-6.5c-5.5-5.1-7.7-11.6-7.5-19
			c0.4-11.1,8.6-20.6,19.7-22.7C349.2,18.7,351,18.5,352.6,18.6z M352.9,59.9c9.1,0,16.1-7.4,16.1-16.9c0-9.3-7-16.6-16.1-16.7
			c-9.1-0.1-16.2,7.3-16.2,16.8C336.7,52.6,343.8,59.9,352.9,59.9z"/>
		<path d="M471.5,44c-5.3,0-10.6,0-15.8,0c-1.5,0-1.5,0-1.3,1.5c1.3,10.1,9.8,16.2,19.8,14.1c3.5-0.7,6.7-2.2,9.5-4.3
			c0.7-0.6,1-0.4,1.3,0.3c0.8,1.6,1.7,3.1,2.6,4.6c0.5,0.8,0.5,1.3-0.4,1.9c-4,2.9-8.5,4.8-13.4,5.4c-7,0.9-13.6-0.3-19.3-4.6
			c-5.6-4.2-8.6-10-9.3-16.9c-0.5-5.2,0.1-10.3,2.6-15c4-7.9,10.6-11.8,19.3-12.3c4.7-0.3,9.2,0.5,13.1,3.3
			c5.2,3.6,7.6,8.8,8.4,14.9c0.3,2,0.3,4.1,0.1,6.1c-0.1,1-0.5,1.2-1.4,1.2C482,43.9,476.8,44,471.5,44z M467.2,38.2
			c3.3,0,6.6,0,9.8,0c2.7,0,2.7,0,2.3-2.7c-1-6-5.3-9.8-11.2-9.8c-6.3,0-11.8,4.3-13.3,11.5c-0.2,0.8,0.2,0.9,0.9,0.9
			C459.5,38.2,463.3,38.2,467.2,38.2z"/>
		<path d="M116.7,39.9c0-4.5,0-8.3,0-12c0-1.1-0.3-1.4-1.4-1.3c-1.9,0.1-3.8,0-5.6,0c-0.7,0-1-0.2-1-1c0-1.7,0.1-3.4,0-5
			c0-0.8,0.3-1,1-1c1.9,0,3.8-0.1,5.8,0c1.2,0.1,1.4-0.4,1.3-1.4c-0.1-3.4,0-6.9,0-10.3c0-1,0.3-1.2,1.2-1.2c2.2,0.1,4.5,0,6.7,0
			c0.7,0,1,0.2,0.9,1c0,3.6,0,7.2,0,10.8c0,0.9,0.2,1.2,1.1,1.1c3-0.1,6.1,0,9.1,0c0.8,0,1,0.2,1,1c-0.1,1.6-0.1,3.3,0,4.9
			c0,0.9-0.3,1.1-1.1,1.1c-3,0-6,0-9,0c-0.9,0-1.2,0.2-1.2,1.1c0,7.1,0,14.2,0,21.4c0,1.2,0.2,2.3,0.5,3.4c1.2,4.6,4.9,7.2,10.2,6.9
			c1.9-0.1,1.5-0.1,1.6,1.4c0,1.7,0,3.4,0,5.2c0,0.5,0,0.8-0.6,0.9c-4.4,0.3-8.8,0-12.8-2.2c-4.9-2.6-7-7-7.6-12.3
			C116.4,47.9,116.8,43.5,116.7,39.9z"/>
		<path d="M87,31.3c1.2-3.3,2.7-6,5-8.2c3.1-2.9,6.8-4.3,11-4c0.8,0.1,1.2,0.3,1.2,1.2c-0.1,2.4,0,4.7,0,7.1c0,0.5,0,0.8-0.7,0.7
			C97.5,27.4,93,29.8,90.1,35c-2,3.6-2.8,7.5-2.8,11.5c0,4,0,7.9,0,11.9c0,1,0.3,1.3,1.3,1.2c1.6-0.1,3.2,0,4.8,0
			c0.7,0,0.9,0.2,0.9,0.9c0,1.8,0,3.5,0,5.3c0,0.6-0.2,0.8-0.8,0.8c-7.1,0-14.2,0-21.4,0c-0.7,0-0.9-0.2-0.9-0.9c0-1.8,0-3.5,0-5.3
			c0-0.6,0.2-0.8,0.8-0.8c1.8,0,3.5,0,5.3,0c0.7,0,1-0.2,1-0.9c0-10,0-19.9,0-29.9c0-1.5-0.6-2.2-2.2-2.2c-1.6,0-3.1-0.1-4.7,0
			c-0.9,0-1.1-0.3-1.1-1.1c0.1-1.7,0-3.4,0-5c0-0.5,0-0.9,0.6-0.9c3.8,0.1,7.7-0.2,11.5,0.2c2.9,0.3,4.4,1.9,4.5,4.8
			C87,26.7,87,28.8,87,31.3z"/>
		<path d="M398.8,115.6c-1.7,2.3-3.7,3.7-6.2,4.3c-6.2,1.2-11.6-1.8-13.6-7.8c-1.6-4.8-1.5-9.6,0.8-14.2c2.9-5.9,10.3-8.1,15.9-5.1
			c1.3,0.7,2.3,1.8,3.5,3.2c0-1.2,0-2.2,0-3.1c0-0.6,0.2-0.8,0.8-0.7c0,0,0.1,0,0.1,0c1.3,0,3-0.4,3.8,0.2c0.9,0.7,0.3,2.5,0.3,3.8
			c0,11,0,21.9,0,32.9c0,1.1-0.3,1.5-1.4,1.4c-1-0.1-1.9-0.1-2.9,0c-0.9,0.1-1.1-0.3-1.1-1.1C398.8,124.7,398.8,120.3,398.8,115.6z
			 M399,105.2c0-1.2-0.3-3-1.1-4.7c-1.2-2.6-3.2-4.4-6.2-4.5c-2.8-0.1-5,1-6.6,3.4c-2.4,3.6-2.3,9.4,0.1,13c2.8,4.2,9,4.3,11.9,0.2
			C398.5,110.6,398.9,108.3,399,105.2z"/>
		<path d="M253.2,115.6c0,1.1,0,2,0,2.9c0,0.7-0.1,1-0.9,1c-1.1-0.1-2.2-0.1-3.2,0c-0.7,0-0.9-0.3-0.9-0.9c0-1.9,0-3.8,0-5.8
			c0-10.1,0-20.2,0-30.2c0-1,0.2-1.4,1.2-1.3c1,0.1,1.9,0.1,2.9,0c1-0.1,1.2,0.3,1.2,1.2c0,4.4,0,8.8,0,13.4c0.4-0.5,0.7-0.8,1-1.2
			c4.6-5,13.3-4.2,17.2,1.6c3.4,5,3.4,13.4,0.2,18.5C267.9,121,258.1,122.3,253.2,115.6z M253.4,104.9c-0.2,2.7,0.4,5.3,1.6,7.2
			c2.9,4.5,9.1,4.7,12.1,0.2c2.5-3.7,2.5-7.8,0.8-11.8c-1.2-3-3.8-4.7-6.9-4.6c-3.2,0.1-5.7,1.9-6.8,4.9
			C253.7,102.2,253.4,103.6,253.4,104.9z"/>
		<path d="M122.2,105.8c0,8.2-6.4,14.3-14.9,14.3c-8.3,0-14.6-6.3-14.6-14.5c0-8,6.6-14.3,14.8-14.2
			C116,91.5,122.3,97.6,122.2,105.8z M98.1,105.7c0,5.6,4.1,9.8,9.5,9.8c5.3,0,9.3-4.3,9.3-9.8c0-5.5-4.1-9.8-9.4-9.7
			C102.2,96,98.1,100.3,98.1,105.7z"/>
		<path d="M308.2,105.7c0,8.2-6.3,14.4-14.7,14.4c-8.5,0-14.8-6.2-14.8-14.4c0-8.1,6.3-14.2,14.7-14.3
			C301.8,91.3,308.2,97.6,308.2,105.7z M302.9,105.8c0-5.5-4-9.7-9.4-9.8c-5.2-0.1-9.4,4.2-9.4,9.7c0,5.5,4.1,9.8,9.3,9.9
			C298.8,115.6,302.9,111.3,302.9,105.8z"/>
		<path d="M156,105.7c0,8.2-6.3,14.4-14.8,14.4c-8.4,0-14.8-6.2-14.8-14.4c0-8.1,6.3-14.2,14.7-14.3C149.6,91.3,156,97.6,156,105.7z
			 M141.2,115.5c5.4,0,9.5-4.2,9.5-9.8c0-5.5-4.1-9.8-9.4-9.8c-5.3,0-9.4,4.3-9.5,9.7C131.8,111.1,136,115.5,141.2,115.5z"/>
		<path d="M184.8,92c-1.8,2.3-3.3,4.5-5,6.6c-1.2,1.5-2.3,3.1-3.5,4.6c-0.6,0.7-0.6,1.2-0.1,2c2.9,4.3,5.8,8.6,8.7,12.9
			c0.2,0.4,0.5,0.7,0.8,1.3c-2,0-3.9,0-5.7,0c-0.6,0-0.7-0.5-0.9-0.8c-2.3-3.6-4.6-7.2-6.9-10.8c-0.5-0.8-1.1-1.2-2.1-1.2
			c-2.6,0.1-2.6,0-2.6,2.6c0,3.1,0,6.2,0,9.2c0,0.7-0.2,1-0.9,1c-1.2-0.1-2.3,0-3.5,0c-0.7,0-0.9-0.2-0.9-0.9c0-1.4,0-2.8,0-4.2
			c0-10.6,0-21.2,0-31.8c0-1.1,0.3-1.4,1.4-1.3c1,0.1,1.9,0.1,2.9,0c0.9-0.1,1.1,0.3,1.1,1.1c0,6.2,0,12.3,0,18.5
			c0,1.1,0.3,1.3,1.4,1.4c1.8,0.2,3-0.5,4-2c1.6-2.5,3.6-4.8,5.3-7.2c0.4-0.6,0.9-0.9,1.7-0.9C181.4,92.1,183,92,184.8,92z"/>
		<path d="M458.1,106.5c-2.9,0-5.8,0-8.8,0c-1,0-1.2,0.3-1.1,1.3c0.6,5,5.4,8.5,10.6,7.7c2.3-0.3,4.3-1.2,6.1-2.6
			c0.6-0.5,0.9-0.4,1.2,0.3c0.4,0.8,0.9,1.6,1.3,2.4c0.3,0.5,0.3,0.7-0.2,1.1c-7.3,5.7-19,4.5-23.2-4.4c-3.3-6.9-0.8-15.6,5.4-19.1
			c4.6-2.6,10.9-2.3,14.6,0.8c3.7,3.2,4.5,7.4,4.1,12c-0.1,0.8-0.7,0.6-1.1,0.6C464.1,106.5,461.1,106.5,458.1,106.5z M455.8,102.6
			c2.1,0,4.2,0,6.2,0c0,0,0.1,0,0.1,0c0.5,0,0.8,0,0.8-0.7c0-2.6-1.9-5.2-4.4-6c-4.3-1.3-8.9,1.3-10,5.7c-0.2,0.8,0,1,0.8,1
			C451.5,102.5,453.6,102.6,455.8,102.6z"/>
		<path d="M217.7,106.5c-2.8,0-5.7,0-8.5,0c-1.5,0-1.5,0.1-1.3,1.5c1.1,5.6,6.1,8.7,11.9,7.2c1.8-0.4,3.4-1.2,4.8-2.3
			c0.6-0.5,0.9-0.4,1.2,0.3c0.4,0.8,0.9,1.6,1.3,2.4c0.3,0.4,0.3,0.7-0.2,1.1c-7.1,5.6-18.8,4.6-23.2-4.2
			c-2.9-5.8-1.6-13.4,2.9-17.6c4.5-4.2,12.5-4.7,17-0.8c3.6,3.1,4.5,7.3,4,11.9c-0.1,0.8-0.7,0.6-1.1,0.6
			C223.7,106.5,220.7,106.5,217.7,106.5z M215.2,102.6c2.1,0,4.2,0,6.3,0c0,0,0.1,0,0.1,0c0.7,0.1,0.9-0.2,0.8-0.9
			c-0.2-2.6-1.9-4.9-4.3-5.7c-4.3-1.5-9.1,1.3-10.1,5.7c-0.2,0.7,0,0.9,0.7,0.9C211,102.5,213.1,102.6,215.2,102.6z"/>
		<path d="M333.6,114c-2.5,4-5.8,6-10.2,6c-5.7,0-9-3-9.2-8.8c-0.2-5.6-0.1-11.1-0.1-16.7c0-2.6,0-2.6,2.6-2.6c2.6,0,2.6,0,2.6,2.6
			c0,5,0,10,0.1,15c0,0.7,0.1,1.4,0.3,2.1c0.5,2,1.7,3.1,3.8,3.3c4.6,0.6,8.7-2.6,9.7-7.7c0.2-0.9,0.3-1.9,0.3-2.9
			c0-3.8,0-7.6,0-11.4c0-1,0.3-1.2,1.2-1.2c1,0.1,2,0.1,3,0c0.9-0.1,1.1,0.3,1.1,1.1c0,7.1,0,14.2,0,21.2c0,1.4,0,2.7,0,4.1
			c0,0.8-0.2,1-1,0.9c-1.3-0.1-3,0.4-3.8-0.2c-0.9-0.7-0.2-2.5-0.3-3.8C333.6,115.1,333.6,114.7,333.6,114z"/>
		<path d="M431.3,114.6c-1.8,2.5-4,4.3-7,5.1c-2.4,0.7-4.8,0.6-7.2-0.2c-3.3-1.2-4.6-3.8-5.1-7.1c-0.3-1.9-0.2-3.8-0.2-5.7
			c0-4.5,0-9,0-13.6c0-0.8,0.2-1.1,1.1-1.1c1,0.1,2.1,0.1,3.1,0c0.8-0.1,1.1,0.2,1.1,1.1c0,4.8,0,9.5,0,14.3c0,1.5,0,3,0.4,4.5
			c0.5,1.9,1.7,3,3.7,3.3c3.4,0.5,6.6-1.2,8.4-4.3c1.1-1.9,1.5-4,1.5-6.2c0-3.8,0-7.6,0-11.4c0-1,0.3-1.3,1.2-1.2
			c1,0.1,1.9,0.1,2.9,0c0.9-0.1,1.2,0.2,1.2,1.1c-0.1,2.5,0,5,0,7.4c0,5.9,0,11.8,0,17.6c0,0.9-0.2,1.3-1.2,1.2c-1-0.1-2-0.1-3,0
			c-0.7,0-0.9-0.2-0.9-0.9C431.4,117.2,431.3,115.9,431.3,114.6z"/>
		<path d="M77.2,120.1c-5.4-0.2-10.2-2.5-12.7-8.2c-2.4-5.6-1.8-11,2.2-15.7c4.8-5.7,14.9-6.4,20.7-1.6c0.7,0.6,0.8,1,0.2,1.7
			c-0.5,0.6-0.9,1.2-1.3,1.9c-0.4,0.8-0.7,0.8-1.4,0.2c-2.9-2.3-6.3-3.1-9.9-2c-4.5,1.4-7.1,5.9-6.3,11.1c0.7,4.5,4.5,7.9,9,8
			c3.2,0.1,5.9-1,8.3-3.1c0.5-0.5,0.8-0.5,1.1,0.2c0.3,0.6,0.6,1.3,1,1.8c0.9,1.1,0.4,1.8-0.5,2.5C84.6,119,81.4,120.1,77.2,120.1z"
			/>
		<path d="M348,104c0-2.2,0-4.3,0-6.5c0-0.7-0.2-0.9-0.9-0.9c-0.9,0-2,0.4-2.5-0.2c-0.6-0.6-0.1-1.8-0.2-2.7
			c-0.2-1.2,0.4-1.4,1.4-1.3c2.4,0.1,2.4,0,2.4-2.5c0-1.5,0-3,0-4.6c0-0.7,0.2-0.9,0.9-0.9c1.1,0,2.2,0.1,3.2,0c0.7,0,1,0.2,1,0.9
			c-0.1,2,0,4,0,6c0,0.8,0.2,1.1,1,1c1.5-0.1,3,0,4.4,0c0.9,0,1.2,0.2,1.2,1.1c0,3.1,0,3.1-3,3.1c-0.9,0-1.8,0-2.8,0
			c-0.6,0-0.8,0.2-0.8,0.8c0,3.9,0,7.8,0,11.8c0.1,3.8,2.3,5.8,6.2,5.7c0.7,0,1,0.1,1,0.9c-0.1,0.5,0,1,0,1.4c0,2.4,0,2.4-2.4,2.3
			c-4.7-0.1-8.1-2.3-9.4-6.1c-0.5-1.5-0.6-3.1-0.6-4.7C348,107.2,348,105.6,348,104z"/>
		<path d="M190.8,105.8c0-4.2,0-8.5,0-12.7c0-0.8,0.2-1.1,1.1-1.1c1.1,0.1,2.2,0.1,3.4,0c0.7,0,0.9,0.2,0.9,0.9c0,8.6,0,17.1,0,25.7
			c0,0.7-0.3,0.9-0.9,0.8c-1,0-2.1-0.1-3.1,0c-1,0.1-1.3-0.2-1.3-1.2C190.8,114.1,190.8,109.9,190.8,105.8z"/>
		<path d="M366.3,105.7c0-4.2,0-8.4,0-12.6c0-0.8,0.2-1.1,1.1-1.1c1,0.1,2.1,0.1,3.1,0c0.9-0.1,1.1,0.3,1.1,1.1c0,7.4,0,14.9,0,22.3
			c0,1,0,2.1,0,3.1c0,0.6-0.2,0.9-0.8,0.8c-1.2,0-2.3-0.1-3.5,0c-0.8,0-1-0.3-1-1C366.3,114.2,366.3,109.9,366.3,105.7z"/>
		<path d="M196.1,83.9c0,2.7,0,2.7-2.7,2.7c-2.6,0-2.6,0-2.6-2.7c0-2.7,0-2.7,2.7-2.7c0,0,0.1,0,0.1,0
			C196.1,81.2,196.1,81.2,196.1,83.9z"/>
		<path d="M371.5,83.9c0,2.7,0,2.7-2.8,2.7c-2.5,0-2.5,0-2.5-2.5c0-2.9,0-2.9,2.8-2.9C371.5,81.2,371.5,81.2,371.5,83.9z"/>
	</g>
</g>
</svg>
